<?xml version="1.0" encoding="utf-8"?>
<!-- Generator: Adobe Illustrator 24.0.1, SVG Export Plug-In . SVG Version: 6.00 Build 0)  -->
<svg version="1.1" id="Layer_1" xmlns="http://www.w3.org/2000/svg" xmlns:xlink="http://www.w3.org/1999/xlink" x="0px" y="0px"
	 viewBox="0 0 1080 1080" style="enable-background:new 0 0 1080 1080;" xml:space="preserve">
<style type="text/css">
	.st0{fill:#006DFF;}
	.st1{font-family:'ErasITC-Bold';}
	.st2{font-size:104.7017px;}
	.st3{fill:#7F7F7F;}
	.st4{fill:#254AC0;}
	.st5{fill:#969598;}
	.st6{fill:url(#SVGID_1_);}
	.st7{fill:#FFFFFF;}
	.st8{fill:url(#SVGID_2_);}
</style>
<text transform="matrix(1 0 0 1 230.002 573.5466)"><tspan x="0" y="0" class="st0 st1 st2">medical</tspan><tspan x="410.06" y="0" class="st3 st1 st2">tutors</tspan></text>
<linearGradient id="SVGID_1_" gradientUnits="userSpaceOnUse" x1="84" y1="543" x2="205" y2="543">
	<stop  offset="0" style="stop-color:#254AC0"/>
	<stop  offset="1" style="stop-color:#006DFF"/>
</linearGradient>
<path class="st6" d="M175.41,603.5h-61.81C97.25,603.5,84,590.25,84,573.91v-61.81c0-16.34,13.25-29.59,29.59-29.59h61.81
	c16.34,0,29.59,13.25,29.59,29.59v61.81C205,590.25,191.75,603.5,175.41,603.5z"/>
<path class="st7" d="M151.03,558.42c-1.44,0-2.61,1.17-2.61,2.61c0,5.62-4.57,10.19-10.19,10.19c-5.62,0-10.19-4.57-10.19-10.19
	v-7.51l9.29-13.48c0.06-0.08,0.11-0.17,0.15-0.26c0.18-0.17,0.35-0.33,0.52-0.51c3.35-3.4,5.19-8.16,5.19-13.39
	c0-0.04,0-0.09,0-0.13l0-10.12c0-3.35-2.73-6.08-6.08-6.08h-4.9c-1.44,0-2.61,1.17-2.61,2.61v2.61c0,1.44,1.17,2.61,2.61,2.61
	s2.61-1.17,2.61-2.61h2.29c0.47,0,0.85,0.38,0.85,0.85l0,10.26c0,0.04,0,0.08,0,0.13c-0.06,7.66-5.31,13.2-12.54,13.2
	c-7.27,0-12.54-5.61-12.54-13.33c0-0.08-0.01-0.16-0.01-0.24c0.01-0.08,0.01-0.16,0.01-0.24v-9.77c0-0.47,0.38-0.85,0.85-0.85h2.16
	c0.07,1.38,1.21,2.48,2.61,2.48c1.44,0,2.61-1.17,2.61-2.61v-2.48c0-1.44-1.17-2.61-2.61-2.61h-4.77c-3.35,0-6.08,2.73-6.08,6.08
	v9.77c0,0.08,0.01,0.16,0.01,0.24c-0.01,0.08-0.01,0.16-0.01,0.24c0,5.23,1.84,9.99,5.19,13.39c0.1,0.11,0.21,0.21,0.32,0.31
	c0.07,0.16,0.15,0.31,0.25,0.45l9.4,13.64v7.35c0,8.5,6.92,15.42,15.42,15.42s15.42-6.92,15.42-15.42
	C153.65,559.59,152.48,558.42,151.03,558.42z M125.42,544.44c0.9,0,1.79-0.06,2.66-0.19l-2.71,3.93l-2.72-3.95
	C123.55,544.37,124.48,544.44,125.42,544.44z M169.33,537.57V520c0-5.76-4.69-10.45-10.45-10.45s-10.45,4.69-10.45,10.45v27.96
	c0,1.44,1.17,2.61,2.61,2.61s2.61-1.17,2.61-2.61V520c0-2.88,2.34-5.23,5.23-5.23s5.23,2.34,5.23,5.23v17.57
	c-3.04,1.08-5.23,3.98-5.23,7.39c0,4.32,3.52,7.84,7.84,7.84c4.32,0,7.84-3.52,7.84-7.84C174.55,541.55,172.37,538.65,169.33,537.57
	z M166.71,547.57c-1.44,0-2.61-1.17-2.61-2.61c0-1.44,1.17-2.61,2.61-2.61s2.61,1.17,2.61,2.61
	C169.33,546.4,168.15,547.57,166.71,547.57z"/>
</svg>
