<svg id="Layer_1" data-name="Layer 1" xmlns="http://www.w3.org/2000/svg" viewBox="0 0 69 82"><defs><style>.cls-1{fill:none;stroke:#6552e2;stroke-miterlimit:10;stroke-width:2px;}</style></defs><title>headphone</title><path class="cls-1" d="M23,36V49.17H17.83s-2.67-.17-2.5-2.5v-9a2.28,2.28,0,0,1,3-1.67Z"/><path class="cls-1" d="M20,35.17s-2.33-16,14-15.83c0,0,13.83-2.17,13.83,15.83"/><path class="cls-1" d="M45,35.88h3.83s2.95-.71,2.67,2l.13,7.83s.15,3.5-2.29,3.5H45Z"/><path class="cls-1" d="M47.83,49.83s-3.5,4.83-8.67,4"/><path class="cls-1" d="M39.17,52.83s-.67-5.33-6.86-3c0,0-4.43,3.17-.14,8C32.17,57.83,40,60.63,39.17,52.83Z"/></svg>