<svg id="Layer_1" data-name="Layer 1" xmlns="http://www.w3.org/2000/svg" viewBox="0 0 72.17 69.58" width="65px" height="50px">
	<defs>
		<style>
			.cls-1{
				fill:none;
				stroke:#223FB5;
				stroke-miterlimit:10;
				stroke-width:1.5px;
				stroke-dasharray: 192;
				stroke-dashoffset: 190;
				animation: line 2s linear forwards;
			}
			@keyframes line {
				from {
					stroke-dashoffset: 192;
				}
				to {
					stroke-dashoffset: 0;
				}
			}
		</style>
	</defs>
	<title>icon-01</title>
	<path class="cls-1" d="M62.42,13.44l4.75,27.73c-.5,6.42-5.5,7.33-5.5,7.33L34.17,53l-7-40.35L61,6.73,61.67,10m5.21,29.49s-8.52-.31-5.78,9.1m-25-18.73,22.67-4.53m-22,10.33,22.67-4.33m-9.67,8.16L37.58,41.17m-6.73-7.25L16.92,31.33s-4-.83-4.17,4.33l-3,19.5S8.42,59,12.25,59.5l35.83,6.17s5.33,1.67,6.17-2.5L56.1,49.41M16.92,31.33l17,20.06M13.14,33.5,30.58,53h5.5m5-1.14L52.79,65.4M26.64,48.59,9.81,58" />
</svg>