<svg id="Layer_1" data-name="Layer 1" xmlns="http://www.w3.org/2000/svg" viewBox="0 0 55 55" width="65px" height="50px">
	<defs>
		<style>
			.cls-1{
				fill:none;
				stroke:#223FB5;
				stroke-miterlimit:10;
				stroke-width:1.5px;
				stroke-dasharray: 192;
				stroke-dashoffset: 190;
				animation: line 2s linear forwards;
			}
			@keyframes line {
				from {
					stroke-dashoffset: 192;
				}
				to {
					stroke-dashoffset: 0;
				}
			}
		</style>
	</defs>
	<title>icon-01</title>
	<path class="cls-1" d="M37,3.13H52.5V19.29H2.5V3.13H32.67M11.25,7.63A3.75,3.75,0,1,0,15,11.38,3.75,3.75,0,0,0,11.25,7.63Zm20.25.92H26.17v5.33H31.5Zm8,0H34.17v5.33H39.5Zm8,0H42.17v5.33H47.5ZM11.25,24A3.75,3.75,0,1,0,15,27.71,3.75,3.75,0,0,0,11.25,24Zm20.25.92H26.17v5.33H31.5Zm8,0H34.17v5.33H39.5Zm8,0H42.17v5.33H47.5ZM11.25,39.79A3.75,3.75,0,1,0,15,43.54,3.75,3.75,0,0,0,11.25,39.79Zm20.25.92H26.17V46H31.5Zm8,0H34.17V46H39.5Zm8,0H42.17V46H47.5ZM2.5,21.46V35.63h50V21.46M2.5,37.71V51.88h50V37.71" />
</svg>