<svg id="Layer_1" data-name="Layer 1" xmlns="http://www.w3.org/2000/svg" viewBox="0 0 55 55" width="65px" height="50px"> 
	<defs>
		<style>
			.cls-1{
				fill:none;
				stroke:#223FB5;
				stroke-miterlimit:10;
				stroke-width:1.5px;
				stroke-dasharray: 192;
				stroke-dashoffset: 190;
				animation: line 2s linear forwards;
			}
			@keyframes line {
				from {
					stroke-dashoffset: 192;
				}
				to {
					stroke-dashoffset: 0;
				}
			}
		</style>
	</defs>
	<title>icon-01</title>
	<path class="cls-1" d="M7.5,12.66c2.83-7.33,18-6.83,18-6.83,21.33-.17,22,7,22,7v30c-5.17,7-19.5,6.33-19.5,6.33C9.67,48.83,7.5,42.83,7.5,42.83Zm0,1.67s5.33,5.33,20,5.33c0,0,15.5,0,20-5.33M7.5,24.5s4.5,4.83,20,5.17c0,0,10.67,1,20-5.17m-40,10s5.83,5,18.67,4.83c0,0,16.17.17,21.33-4.83" />
</svg>