<svg id="Layer_1" data-name="Layer 1" xmlns="http://www.w3.org/2000/svg" viewBox="0 0 52 57" width="65px" height="50px"><defs>	

<style>
	.cls-1{
				fill:none;
				stroke:#223FB5;
				stroke-miterlimit:10;
				stroke-width:1.5px;
				stroke-dasharray: 192;
				stroke-dashoffset: 190;
				animation: line 2s linear forwards;
			}
			@keyframes line {
				from {
					stroke-dashoffset: 192;
				}
				to {
					stroke-dashoffset: 0;
				}
			}
		</style></defs><title>icon-02</title><path class="cls-1" d="M37.25,50.13H5.06A10.33,10.33,0,0,1,2.11,39.56h27S27.17,49.63,37.25,50.13Zm4.18-30.72h8.85v-5.9a7,7,0,0,0-4.91-6.63h-29C9.23,6.88,9,11.3,9,11.3V39.56M37.25,50.13c3.94,0,3.44-6.31,3.44-6.31V12.69a7.05,7.05,0,0,1,3.19-5.82M24.65,11.37l-6.57,4.11v7.74l6.27,5,6.88-5V16.09ZM15.13,31.94H34.91M15.13,35.75H34.91"/></svg>