<svg id="Layer_1" data-name="Layer 1" xmlns="http://www.w3.org/2000/svg" viewBox="0 0 72.17 69.58" width="65px" height="50px">
	<defs>
		<style>
			.cls-1{
				fill:none;
				stroke:#223FB5;
				stroke-miterlimit:10;
				stroke-width:1.5px;
				stroke-dasharray: 192;
				stroke-dashoffset: 190;
				animation: line 2s linear forwards;
			}
			@keyframes line {
				from {
					stroke-dashoffset: 192;
				}
				to {
					stroke-dashoffset: 0;
				}
			}
		</style>
	</defs>
	<title>icon-01</title>
	<path class="cls-1" d="M25.92,34.79V28.17c-9.17-4.5-8.17-12-8.17-12-.67-8.67,8.17-13,8.17-13v12.5H36.08V3.17S45.08,7,44.92,16c0,0,.17,8.17-8.83,12.33v6.46M26.92,21.67h9.17M31.5,28v6.79M43.42,57.5V34.79c-.17-6.87-4.79-7.9-4.79-7.9m26,7.9H20.25s-2.13,0-2.08,2.89c0,0,.17,3.48,4.25,2.82m-2.72-.32s-1.12.65-1,3.65c0,0-.25,2,3.83,2.17m-3-.77s-1,.94-.81,3.86c0,0,.34,2.5,3.84,2.42m-2.94-.89s-1.64.55-1.39,3.8a2.8,2.8,0,0,0,2.92,3.08h43.5M50.42,46.58a3.25,3.25,0,1,0,3.25,3.25A3.25,3.25,0,0,0,50.42,46.58ZM25.25,57.5v6.08s-.08,4.08,5.5,4.42c0,0,5,.58,5.33-4.42V57.5M31,59.83A2.19,2.19,0,1,0,33.21,62,2.19,2.19,0,0,0,31,59.83Z" />
</svg>