<svg id="Layer_1" data-name="Layer 1" xmlns="http://www.w3.org/2000/svg" viewBox="0 0 72.17 69.58" width="65px" height="50px">
	<defs>
		<style>
			.cls-1{
				fill:none;
				stroke:#223FB5;
				stroke-miterlimit:10;
				stroke-width:1.5px;
				stroke-dasharray: 192;
				stroke-dashoffset: 190;
				animation: line 2s linear forwards;
			}
			@keyframes line {
				from {
					stroke-dashoffset: 192;
				}
				to {
					stroke-dashoffset: 0;
				}
			}
		</style>
	</defs>
	<title>icon-01</title>
	<path class="cls-1" d="M49,24.35V29a.91.91,0,0,1-.9.9h-2.9a10.14,10.14,0,0,1-.57,1.36l2.06,2.06a.91.91,0,0,1,0,1.28l-3.28,3.28a.91.91,0,0,1-1.28,0L40.08,35.8a10.14,10.14,0,0,1-1.36.57v2.9a.91.91,0,0,1-.9.9H33.18a.91.91,0,0,1-.9-.9v-2.9a10.14,10.14,0,0,1-1.36-.57l-2.06,2.06a.91.91,0,0,1-1.28,0l-3.28-3.28a.91.91,0,0,1,0-1.28l2.06-2.06a10.14,10.14,0,0,1-.57-1.36H22.9A.91.91,0,0,1,22,29V24.35a.91.91,0,0,1,.9-.9h2.9a10.14,10.14,0,0,1,.57-1.36L24.32,20a.91.91,0,0,1,0-1.28l3.28-3.28a.91.91,0,0,1,1.28,0l2.06,2.06A10.14,10.14,0,0,1,32.28,17v-2.9a.91.91,0,0,1,.9-.9h4.63a.91.91,0,0,1,.9.9V17a10.14,10.14,0,0,1,1.36.57l2.06-2.06a.91.91,0,0,1,1.28,0l3.28,3.28a.91.91,0,0,1,0,1.28l-2.06,2.06a10.14,10.14,0,0,1,.57,1.36h2.9A.91.91,0,0,1,49,24.35ZM35.5,21.42a5.25,5.25,0,1,0,5.25,5.25A5.25,5.25,0,0,0,35.5,21.42ZM6.25,9V56.5H64.92V9Zm0,35H64.92M30.42,59.5v4.83M41.08,59.5v4.83m-15.83,0H46.08" />
</svg>