<svg xmlns="http://www.w3.org/2000/svg" width="55" height="55" viewBox="0 0 55 55">
  <g id="facebook" transform="translate(-1346 -6604)">
    <g id="Ellipse_11" data-name="Ellipse 11" transform="translate(1346 6604)" fill="#fff" stroke="#707070" stroke-width="1">
      <circle cx="27.5" cy="27.5" r="27.5" stroke="none"/>
      <circle cx="27.5" cy="27.5" r="27" fill="none"/>
    </g>
    <path id="Icon_awesome-facebook" data-name="Icon awesome-facebook" d="M35.438,18A17.438,17.438,0,1,0,15.275,35.227V23.041h-4.43V18h4.43V14.158c0-4.37,2.6-6.784,6.586-6.784a26.836,26.836,0,0,1,3.9.34V12h-2.2a2.52,2.52,0,0,0-2.841,2.723V18h4.836l-.773,5.041H20.725V35.227A17.444,17.444,0,0,0,35.438,18Z" transform="translate(1355.438 6613.438)" fill="#2344c0"/>
  </g>
</svg>
