<svg xmlns="http://www.w3.org/2000/svg" width="55" height="55" viewBox="0 0 55 55">
  <g id="linkedin" transform="translate(-1418 -6604)">
    <g id="Ellipse_12" data-name="Ellipse 12" transform="translate(1418 6604)" fill="#fff" stroke="#707070" stroke-width="1">
      <circle cx="27.5" cy="27.5" r="27.5" stroke="none"/>
      <circle cx="27.5" cy="27.5" r="27" fill="none"/>
    </g>
    <path id="Icon_simple-linkedin" data-name="Icon simple-linkedin" d="M23.4,23.406H19.333V17.033c0-1.52-.031-3.476-2.119-3.476-2.121,0-2.445,1.654-2.445,3.363v6.485H10.7V10.3h3.907v1.786h.053a4.286,4.286,0,0,1,3.857-2.117c4.121,0,4.883,2.712,4.883,6.243v7.194ZM6.108,8.507A2.362,2.362,0,1,1,8.47,6.143,2.36,2.36,0,0,1,6.108,8.507Zm2.039,14.9H4.068V10.3H8.147ZM25.435,0H2.027A2,2,0,0,0,0,1.979V25.488a2,2,0,0,0,2.027,1.979h23.4a2.009,2.009,0,0,0,2.035-1.979V1.979A2.01,2.01,0,0,0,25.432,0Z" transform="translate(1432 6618)" fill="#2344c0"/>
  </g>
</svg>
