<svg xmlns="http://www.w3.org/2000/svg" width="55" height="55" viewBox="0 0 55 55">
  <g id="twitter" transform="translate(-1490 -6604)">
    <g id="Ellipse_13" data-name="Ellipse 13" transform="translate(1490 6604)" fill="#fff" stroke="#707070" stroke-width="1">
      <circle cx="27.5" cy="27.5" r="27.5" stroke="none"/>
      <circle cx="27.5" cy="27.5" r="27" fill="none"/>
    </g>
    <path id="Icon_simple-twitter" data-name="Icon simple-twitter" d="M32.293,6.5a13.482,13.482,0,0,1-3.808,1.045A6.684,6.684,0,0,0,31.4,3.875a13.7,13.7,0,0,1-4.216,1.6A6.631,6.631,0,0,0,15.711,10a6.788,6.788,0,0,0,.171,1.515A18.786,18.786,0,0,1,2.211,4.6a6.5,6.5,0,0,0-.9,3.337,6.634,6.634,0,0,0,2.95,5.522,6.612,6.612,0,0,1-3-.83v.082a6.637,6.637,0,0,0,5.32,6.507,6.694,6.694,0,0,1-2.982.115A6.655,6.655,0,0,0,9.8,23.941a13.3,13.3,0,0,1-8.226,2.838A14.079,14.079,0,0,1,0,26.689a18.868,18.868,0,0,0,10.188,2.978c12.206,0,18.872-10.106,18.872-18.855,0-.282,0-.566-.02-.849a13.4,13.4,0,0,0,3.316-3.435L32.293,6.5Z" transform="translate(1501 6614.631)" fill="#2344c0"/>
  </g>
</svg>
