<svg xmlns="http://www.w3.org/2000/svg" xmlns:xlink="http://www.w3.org/1999/xlink" width="39" height="39" viewBox="0 0 39 39">
  <defs>
    <linearGradient id="linear-gradient" y1="0.5" x2="1" y2="0.5" gradientUnits="objectBoundingBox">
      <stop offset="0" stop-color="#00f2fe"/>
      <stop offset="0.021" stop-color="#03effe"/>
      <stop offset="0.293" stop-color="#24d2fe"/>
      <stop offset="0.554" stop-color="#3cbdfe"/>
      <stop offset="0.796" stop-color="#4ab0fe"/>
      <stop offset="1" stop-color="#4facfe"/>
    </linearGradient>
  </defs>
  <path id="virus" d="M15.955,31.973a1.522,1.522,0,0,1-1.992.82c-.119-.05-.236-.1-.354-.155l-.64,1.1a2.285,2.285,0,1,1-2.679-1.454l.687-1.18A14.405,14.405,0,0,1,7.93,28.067l-1.037.61a2.284,2.284,0,1,1-1.583-2.6l1.073-.631a14.292,14.292,0,0,1-1.2-4.419h-1.2a2.285,2.285,0,1,1,0-3.047H5.183A14.305,14.305,0,0,1,6.355,13.6l-1.063-.62a2.285,2.285,0,1,1,1.514-2.644l1.086.633A14.566,14.566,0,0,1,10.93,7.924l-.606-1.031a2.284,2.284,0,1,1,2.6-1.583l.628,1.068a14.3,14.3,0,0,1,4.421-1.195v-1.2a2.285,2.285,0,1,1,3.047,0v1.2a14.4,14.4,0,0,1,4.367,1.179l.625-1.072a2.285,2.285,0,1,1,2.644,1.514L28.023,7.9q.468.344.91.726a14.442,14.442,0,0,1,2.137,2.309l1.037-.609a2.284,2.284,0,1,1,1.583,2.6l-1.075.632a14.307,14.307,0,0,1,1.12,3.779.76.76,0,0,0,.751.638h.526a2.285,2.285,0,1,1,0,3.047h-.526a3.827,3.827,0,0,1-3.764-3.231A11.351,11.351,0,1,0,15.135,29.98a1.523,1.523,0,0,1,.82,1.992Zm3.621-13.92A1.523,1.523,0,1,0,21.1,19.576,1.523,1.523,0,0,0,19.576,18.053Zm0-6.094A1.523,1.523,0,1,0,21.1,13.482,1.523,1.523,0,0,0,19.576,11.959Zm0,12.187A1.523,1.523,0,1,0,21.1,25.67,1.523,1.523,0,0,0,19.576,24.146Zm3.732-7.617a1.523,1.523,0,1,0,1.523-1.523A1.523,1.523,0,0,0,23.309,16.529ZM14.32,15.006a1.523,1.523,0,1,0,1.523,1.523A1.523,1.523,0,0,0,14.32,15.006Zm0,5.941a1.523,1.523,0,1,0,1.523,1.523A1.523,1.523,0,0,0,14.32,20.947ZM28.336,35.953a1.523,1.523,0,1,0,1.523,1.523A1.523,1.523,0,0,0,28.336,35.953Zm10.143-2.075L31.141,22.724a3.315,3.315,0,0,0-5.61,0L18.193,33.878l-.023.035A3.336,3.336,0,0,0,20.988,39h1.407a1.523,1.523,0,1,0,0-3.047H20.988a.249.249,0,0,1-.227-.142.278.278,0,0,1-.006-.282l7.332-11.145.023-.035a.268.268,0,0,1,.454,0l.023.035,7.332,11.145a.278.278,0,0,1-.006.282.249.249,0,0,1-.227.142H34.353a1.523,1.523,0,0,0,0,3.047h1.331A3.336,3.336,0,0,0,38.5,33.914l-.023-.035ZM28.336,28.412a1.523,1.523,0,0,0-1.523,1.523V33.05a1.523,1.523,0,1,0,3.047,0V29.936A1.523,1.523,0,0,0,28.336,28.412Z" transform="translate(0 0)" fill="url(#linear-gradient)"/>
</svg>
