<svg xmlns="http://www.w3.org/2000/svg" width="55" height="55" viewBox="0 0 55 55">
  <g id="youtube" transform="translate(-1562 -6604)">
    <g id="Ellipse_14" data-name="Ellipse 14" transform="translate(1562 6604)" fill="#fff" stroke="#707070" stroke-width="1">
      <circle cx="27.5" cy="27.5" r="27.5" stroke="none"/>
      <circle cx="27.5" cy="27.5" r="27" fill="none"/>
    </g>
    <path id="Icon_simple-youtube" data-name="Icon simple-youtube" d="M35.243,9.307a4.51,4.51,0,0,0-3.132-3.132c-2.805-.752-14.094-.752-14.094-.752s-11.26-.015-14.094.752A4.51,4.51,0,0,0,.791,9.307a46.871,46.871,0,0,0-.783,8.708A46.87,46.87,0,0,0,.791,26.69a4.511,4.511,0,0,0,3.132,3.132c2.8.753,14.094.753,14.094.753s11.259,0,14.094-.753a4.511,4.511,0,0,0,3.132-3.132,46.871,46.871,0,0,0,.75-8.674,46.87,46.87,0,0,0-.75-8.707ZM14.413,23.4V12.612l9.4,5.4Z" transform="translate(1571.592 6613.433)" fill="#2344c0"/>
  </g>
</svg>
